<svg id="Layer_1" enable-background="new 0 0 497 497" height="512" viewBox="0 0 497 497" width="512" xmlns="http://www.w3.org/2000/svg"><g><g><path d="m481.11 208.839c-6.615 0-19.396 10.517-25.29 25.47h-13.104c-3.024-41.817-19.303-79.965-44.665-110.286l24.856-24.809c14.762 6.414 31.25 4.831 35.928.162 6.205-6.193-1.874-24.298-18.045-40.438s-34.311-24.204-40.516-18.01c-4.678 4.669-6.264 21.125.162 35.858l-24.659 24.611c-29.98-25.863-67.952-42.737-109.717-46.464v-13.371c14.983-5.883 25.52-18.639 25.52-25.241 0-8.759-18.54-15.859-41.409-15.859-22.87 0-41.409 7.1-41.409 15.859 0 6.602 10.537 19.358 25.52 25.241v13.096c-41.898 3.018-80.119 19.265-110.498 44.579l-24.857-24.809c6.427-14.734 4.84-31.19.163-35.858-6.205-6.193-24.345 1.87-40.516 18.01s-24.25 34.245-18.045 40.438c4.678 4.669 21.166 6.252 35.928-.162l24.659 24.611c-25.913 29.922-42.819 67.821-46.553 109.506h-13.384c-5.894-14.954-18.675-25.47-25.29-25.47-8.775-.001-15.889 18.503-15.889 41.329s7.114 41.329 15.89 41.329c6.615 0 19.396-10.517 25.29-25.471h13.104c3.024 41.817 19.303 79.965 44.665 110.286l-24.857 24.809c-14.762-6.414-31.25-4.831-35.928-.162-6.205 6.193 1.874 24.298 18.045 40.438s34.311 24.204 40.516 18.01c4.678-4.669 6.264-21.125-.163-35.858l24.659-24.611c29.98 25.863 67.952 42.737 109.717 46.464v13.373c-14.983 5.883-25.52 18.639-25.52 25.241 0 8.759 18.54 15.859 41.409 15.859s41.409-7.1 41.409-15.859c0-6.602-10.537-19.358-25.52-25.241v-13.096c41.898-3.018 80.119-19.265 110.498-44.579l24.857 24.809c-6.427 14.734-4.84 31.19-.163 35.858 6.205 6.193 24.345-1.87 40.516-18.01s24.25-34.245 18.045-40.438c-4.678-4.669-21.166-6.252-35.928.162l-24.659-24.611c25.913-29.922 42.819-67.821 46.553-109.506h13.382c5.894 14.954 18.675 25.471 25.29 25.471 8.776 0 15.89-18.504 15.89-41.329s-7.111-41.331-15.887-41.331z" fill="#57ffae"/><ellipse cx="172.142" cy="173.008" fill="#2fb663" rx="43.607" ry="43.49"/><path d="m172.142 129.518c-5.271 0-10.323.933-15 2.641 16.694 6.099 28.607 22.086 28.607 40.848s-11.913 34.749-28.607 40.848c4.677 1.709 9.729 2.641 15 2.641 24.084 0 43.607-19.471 43.607-43.49s-19.523-43.488-43.607-43.488z" fill="#2ba85c"/><ellipse cx="372.112" cy="284.839" fill="#2fb663" rx="21.804" ry="21.745"/><path d="m372.112 263.094c-3.606 0-7.004.878-10 2.424 7.01 3.616 11.803 10.908 11.803 19.321s-4.794 15.705-11.803 19.321c2.996 1.546 6.394 2.424 10 2.424 12.042 0 21.803-9.735 21.803-21.745.001-12.01-9.761-21.745-21.803-21.745z" fill="#2ba85c"/><ellipse cx="299.929" cy="356.907" fill="#2fb663" rx="32.314" ry="32.227"/><path d="m299.929 324.681c-5.416 0-10.516 1.336-15 3.684 10.291 5.39 17.314 16.146 17.314 28.543s-7.023 23.152-17.314 28.543c4.484 2.348 9.584 3.684 15 3.684 17.846 0 32.314-14.428 32.314-32.227s-14.468-32.227-32.314-32.227z" fill="#2ba85c"/></g><g><path d="m481.11 208.839c-6.615 0-19.396 10.517-25.29 25.47h-13.104c-3.024-41.817-19.303-79.965-44.665-110.286l24.856-24.809c14.762 6.414 31.25 4.831 35.928.162 6.205-6.193-1.874-24.298-18.045-40.438s-34.311-24.204-40.517-18.01c-4.677 4.669-6.264 21.125.162 35.858l-24.659 24.611c-29.98-25.863-67.952-42.737-109.717-46.464v-13.371c14.983-5.883 25.52-18.639 25.52-25.241 0-8.759-18.539-15.859-41.409-15.859s-41.409 7.1-41.409 15.859c0 6.602 10.537 19.358 25.52 25.241v13.096c-2.839.204-5.66.475-8.464.8 98.161 10.074 174.733 93.01 174.733 193.833 0 99.062-73.922 180.854-169.612 193.237v12.911c-14.983 5.883-25.52 18.639-25.52 25.241 0 8.759 18.54 15.859 41.409 15.859 22.87 0 41.409-7.1 41.409-15.859 0-6.602-10.537-19.358-25.52-25.241v-13.096c41.898-3.018 80.119-19.265 110.498-44.578l24.857 24.809c-6.427 14.734-4.84 31.19-.163 35.858 6.205 6.193 24.345-1.87 40.516-18.01s24.25-34.245 18.045-40.438c-4.678-4.669-21.166-6.252-35.928.162l-24.659-24.611c25.913-29.922 42.819-67.821 46.553-109.506h13.382c5.894 14.954 18.675 25.471 25.29 25.471 8.776 0 15.89-18.504 15.89-41.33s-7.111-41.331-15.887-41.331z" fill="#19f78c"/></g></g></svg>